<?xml version="1.0" encoding="utf-8"?>
<!-- Generator: Adobe Illustrator 19.2.0, SVG Export Plug-In . SVG Version: 6.00 Build 0)  -->
<svg version="1.1" id="Layer_1" xmlns="http://www.w3.org/2000/svg" xmlns:xlink="http://www.w3.org/1999/xlink" x="0px" y="0px"
	 viewBox="0 0 595.3 235" style="enable-background:new 0 0 595.3 235;" xml:space="preserve">
<style type="text/css">
	.st0{fill:#FFFFFF;}
</style>
<g>
	<g>
		<path class="st0" d="M238.8,194.6l67.8-113.4h-12l-0.2,0.4l-66.7,112.9h11.1V194.6z M305,169.3h-26.3v13.3h22.8
			c8.1,0,13.6-0.7,19.8-4.5c5.7-3.5,10-8.1,13.2-14.1c1.6-3.1,1.9-9,1.9-9v-11.9c-1.5-2.4-4.7-8.4-5.3-17.1c-2.7-0.2-5.4-0.5-7.9-1
			l0.2,25.8C323.7,161,315.4,169.3,305,169.3z M321.8,115.7l0.3-43.5l-24.8,43.4L321.8,115.7z M351.2,123.7c0-2,0-4,0-6.1
			c-4.1,0.6-8.5,1-13,1c-5.1,0-10.2-0.4-14.8-1.2c0,3.4,0,5.6,0,6.1c4.6,0.8,9.7,1.3,14.8,1.3C342.7,124.7,347.1,124.4,351.2,123.7z
			 M384.4,124.3v25.5c0,0.2-1,10.5,7.7,20.9c8.6,10.2,23,9.6,23.2,9.6H456l3.5-12.9h-44.2c-10.2,0-18.4-8.3-18.4-18.4v-15l9.8,18.2
			h14.9l-30.2-57.7H451V81.8h-82l22.7,42.5H384.4z M292.7,81.3h-17.5l-14.5,27.1l-14.5-27.1H232l28.8,54L292.7,81.3z M451,96.1h-57
			l29.4,56.1H438l-22.6-42.5H451V96.1z M337.3,117.1c4.8-0.1,9.5-0.5,13.8-1.2c0-15.1,0.2-48.2,0.3-48.2c0-5.3-0.4-10.2-0.9-14.5
			c-4,0.8-8.4,1.2-12.9,1.2s-8.9-0.5-12.9-1.2c-0.6,4.4-0.9,9.2-0.9,14.5c0.1,0-0.2,33.2-0.2,48.2
			C327.8,116.6,332.5,117,337.3,117.1z M352.9,72.2l-0.2,43.5l24.5-0.1L352.9,72.2z M382.8,124.3H369v24.6
			c0,25.6,13.2,46.2,38.8,46.2H452l3.6-13.3h-40.2c-0.1,0-0.4,0-0.9,0c-3.4,0-15.6-0.7-23.5-10.1c-9.2-10.9-8.2-21.6-8.1-22
			L382.8,124.3z M350.2,51.5c-3.2-21.8-12-31.6-12.7-32.4c-0.7,0.8-9.5,10.6-12.7,32.4c3.9,0.7,8.3,1.1,12.7,1.2
			C342,52.7,346.3,52.3,350.2,51.5z M203.9,150v-24.1c0-17.6-14.4-31.9-32.1-31.9c-17.6,0-31.9,14.3-31.9,31.9V150
			c0,17.6,14.3,31.9,31.9,31.9C189.5,182,203.9,167.6,203.9,150z M153.4,150.8V125c0-10.2,8.3-18.4,18.4-18.4
			c10.3,0,18.6,8.3,18.6,18.4v25.8c0,10.2-8.3,18.4-18.6,18.4C161.7,169.3,153.4,161,153.4,150.8z M218.3,150.8V125
			c0-25.6-20.9-46.2-46.4-46.2c-25.6,0-46.2,20.7-46.2,46.2v25.8c0,25.6,20.7,46.2,46.2,46.2C197.4,197.1,218.3,176.4,218.3,150.8z
			 M138.3,150v-24.1c0-18.5,15-33.5,33.5-33.5c18.6,0,33.7,15,33.7,33.5V150c0,18.5-15.1,33.5-33.7,33.5
			C153.3,183.6,138.3,168.5,138.3,150z M64.8,94.5h37.7v57.3c0,0.3,1,10-8.2,21c-8.8,10.5-21.3,11-23.9,11c-0.3,0-0.4,0-0.5,0H43
			v13.3h26.3c25.6,0,46.4-20.7,46.4-46.2V81.3c-22.2,0-42.3,0-50.9,0V94.5z M351.2,125.3c-2.6,0.4-5.4,0.7-8.2,0.8
			c-0.2,8.2-3.3,14.4-4.8,16.9v12c0,0.3-0.3,6.4-2.1,9.8c-3.4,6.3-7.9,11.1-13.8,14.7c-6.5,4-12.3,4.7-20.7,4.7h-22.8v12.9h26.3
			c25.6,0,46.4-20.7,46.4-46.2C351.5,150.8,351.2,140.2,351.2,125.3z M237.6,151.6l-30.4,43h18.5l0.2-0.4l25.2-42.7L237.6,151.6
			L237.6,151.6z M460.4,81.8v12.7h49.3h2.2H553V81.8H460.4z M483.1,195.2l26.1-99.1h-48.9v13.6h32.3l-23.2,85.5H483.1z M259.9,136.8
			l-29.6-55.6h-15.4h-0.2l37,69.5L259.9,136.8z M93.1,171.8c8.8-10.5,7.8-19.8,7.8-19.9V96.1H64.8v13h23.1v41.7
			c0,10.2-8.3,18.4-18.6,18.4H43v12.9h27C70.2,182.2,84,182.6,93.1,171.8z M510.9,96.1l-26.1,99.1h12.6l23.2-85.5h32.5V96.1H512
			H510.9z"/>
	</g>
</g>
</svg>
