<?xml version="1.0" encoding="utf-8"?>
<!-- Generator: Adobe Illustrator 22.1.0, SVG Export Plug-In . SVG Version: 6.00 Build 0)  -->
<svg version="1.1" id="Calque_1" xmlns="http://www.w3.org/2000/svg" xmlns:xlink="http://www.w3.org/1999/xlink" x="0px" y="0px"
	 width="32px" height="32px" viewBox="0 0 32 32" style="enable-background:new 0 0 32 32;" xml:space="preserve">
<metadata><?xpacket begin="﻿" id="W5M0MpCehiHzreSzNTczkc9d"?>
<x:xmpmeta xmlns:x="adobe:ns:meta/" x:xmptk="Adobe XMP Core 5.6-c143 79.161356, 2017/09/07-01:11:22        ">
   <rdf:RDF xmlns:rdf="http://www.w3.org/1999/02/22-rdf-syntax-ns#">
      <rdf:Description rdf:about=""/>
   </rdf:RDF>
</x:xmpmeta>
                                                                                                    
                                                                                                    
                                                                                                    
                                                                                                    
                                                                                                    
                                                                                                    
                                                                                                    
                                                                                                    
                                                                                                    
                                                                                                    
                                                                                                    
                                                                                                    
                                                                                                    
                                                                                                    
                                                                                                    
                                                                                                    
                                                                                                    
                                                                                                    
                                                                                                    
                                                                                                    
                           
<?xpacket end="w"?></metadata>
<path d="M0,4.3c0-1,0.4-1.9,1.1-2.5c0.7-0.7,1.7-1,2.8-1c1.1,0,2,0.3,2.7,1c0.7,0.7,1.1,1.6,1.1,2.7c0,1-0.4,1.8-1.1,2.5
	C6,7.5,5,7.8,3.8,7.8h0c-1.1,0-2-0.3-2.7-1S0,5.3,0,4.3z M0.4,31.3V10.7h6.9v20.6H0.4z M11.1,31.3h6.9V19.8c0-0.7,0.1-1.3,0.2-1.7
	c0.3-0.7,0.7-1.3,1.3-1.8c0.6-0.5,1.3-0.7,2.2-0.7c2.3,0,3.5,1.6,3.5,4.7v11H32V19.5c0-3-0.7-5.4-2.2-6.9c-1.4-1.6-3.3-2.4-5.7-2.4
	c-2.7,0-4.7,1.1-6.2,3.4v0.1h0l0-0.1v-2.9h-6.9c0,0.7,0.1,2.7,0.1,6.1C11.1,20.2,11.1,25.1,11.1,31.3z"/>
</svg>
